<svg xmlns="http://www.w3.org/2000/svg" xmlns:xlink="http://www.w3.org/1999/xlink" contentStyleType="text/css" data-diagram-type="CLASS" height="725px" preserveAspectRatio="none" style="width:912px;height:725px;background:#FFFFFF;" version="1.1" viewBox="0 0 912 725" width="912.5px" zoomAndPan="magnify"><defs/><g><!--cluster Relationships--><g class="cluster" data-entity="Relationships" data-source-line="6" data-uid="ent0002" id="cluster_Relationships"><path d="M26.5625,18.75 L324.0601,18.75 A11.7188,11.7188 0 0 1 331.8726,26.5625 L353.7476,83.3862 L882.8125,83.3862 A7.8125,7.8125 0 0 1 890.625,91.1987 L890.625,697.4375 A7.8125,7.8125 0 0 1 882.8125,705.25 L26.5625,705.25 A7.8125,7.8125 0 0 1 18.75,697.4375 L18.75,26.5625 A7.8125,7.8125 0 0 1 26.5625,18.75" fill="none" style="stroke:#000000;stroke-width:4.6875;"/><line style="stroke:#000000;stroke-width:4.6875;" x1="18.75" x2="353.7476" y1="83.3862" y2="83.3862"/><text fill="#000000" font-family="'Fantasque Sans Mono'" font-size="43.75" font-weight="bold" lengthAdjust="spacing" textLength="294.3726" x="31.25" y="62.384">Relationships</text></g><!--class Car--><g class="entity" data-entity="Car" data-source-line="7" data-uid="ent0003" id="entity_Car"><rect fill="#F1F1F1" height="195.8862" rx="7.8125" ry="7.8125" style="stroke:#181818;stroke-width:1.5625;" width="375.6226" x="68.4375" y="121.875"/><ellipse cx="209.0015" cy="171.875" fill="#C2C2C2" rx="34.375" ry="34.375" style="stroke:#181818;stroke-width:3.125;"/><path d="M207.3413,193.5059 Q201.8726,193.5059 198.3081,191.2109 Q194.7925,188.8672 193.0347,184.668 Q191.3257,180.4199 191.3257,174.8047 Q191.3257,168.457 193.3765,163.916 Q195.4272,159.375 199.4312,156.9336 Q203.4351,154.4922 209.2944,154.4922 Q212.0776,154.4922 214.1772,155.0781 Q216.2769,155.6152 218.4253,156.6895 L215.8862,162.9883 Q213.9331,162.0117 212.2241,161.6211 Q210.564,161.2305 209.0503,161.2305 Q205.3882,161.2305 203.1909,162.8906 Q200.9937,164.5508 200.0659,167.5293 Q199.1382,170.5078 199.1382,174.4629 Q199.1382,180.7617 201.3843,183.7891 Q203.6304,186.7676 208.6108,186.7676 Q210.4663,186.7676 212.4194,186.2793 Q214.3726,185.791 216.9604,184.6191 L216.9604,191.5527 Q214.6655,192.5293 212.1753,193.0176 Q209.7339,193.5059 207.3413,193.5059 Z " fill="#000000"/><text fill="#000000" font-family="'Fantasque Sans Mono'" font-size="43.75" lengthAdjust="spacing" textLength="67.9321" x="273.064" y="186.3159">Car</text><line style="stroke:#181818;stroke-width:1.5625;" x1="71.5625" x2="440.9351" y1="221.875" y2="221.875"/><rect fill="none" height="18.75" style="stroke:#595959;stroke-width:3.125;" width="18.75" x="93.4375" y="252.6306"/><text fill="#000000" font-family="'Fantasque Sans Mono'" font-size="43.75" lengthAdjust="spacing" textLength="294.3726" x="130.9375" y="271.759">engine:Engine</text><line style="stroke:#181818;stroke-width:1.5625;" x1="71.5625" x2="440.9351" y1="292.7612" y2="292.7612"/></g><!--class Engine--><g class="entity" data-entity="Engine" data-source-line="11" data-uid="ent0004" id="entity_Engine"><rect fill="#F1F1F1" height="150" rx="7.8125" ry="7.8125" style="stroke:#181818;stroke-width:1.5625;" width="235.8643" x="138.3125" y="505.25"/><ellipse cx="185.1875" cy="555.25" fill="#C2C2C2" rx="34.375" ry="34.375" style="stroke:#181818;stroke-width:3.125;"/><path d="M183.5273,576.8809 Q178.0586,576.8809 174.4941,574.5859 Q170.9785,572.2422 169.2207,568.043 Q167.5117,563.7949 167.5117,558.1797 Q167.5117,551.832 169.5625,547.291 Q171.6133,542.75 175.6172,540.3086 Q179.6211,537.8672 185.4805,537.8672 Q188.2637,537.8672 190.3633,538.4531 Q192.4629,538.9902 194.6113,540.0645 L192.0723,546.3633 Q190.1191,545.3867 188.4102,544.9961 Q186.75,544.6055 185.2363,544.6055 Q181.5742,544.6055 179.377,546.2656 Q177.1797,547.9258 176.252,550.9043 Q175.3242,553.8828 175.3242,557.8379 Q175.3242,564.1367 177.5703,567.1641 Q179.8164,570.1426 184.7969,570.1426 Q186.6523,570.1426 188.6055,569.6543 Q190.5586,569.166 193.1465,567.9941 L193.1465,574.9277 Q190.8516,575.9043 188.3613,576.3926 Q185.9199,576.8809 183.5273,576.8809 Z " fill="#000000"/><text fill="#000000" font-family="'Fantasque Sans Mono'" font-size="43.75" lengthAdjust="spacing" textLength="135.8643" x="228.9375" y="569.6909">Engine</text><line style="stroke:#181818;stroke-width:1.5625;" x1="141.4375" x2="371.0518" y1="605.25" y2="605.25"/><line style="stroke:#181818;stroke-width:1.5625;" x1="141.4375" x2="371.0518" y1="630.25" y2="630.25"/></g><!--class Building--><g class="entity" data-entity="Building" data-source-line="16" data-uid="ent0006" id="entity_Building"><rect fill="#F1F1F1" height="195.8862" rx="7.8125" ry="7.8125" style="stroke:#181818;stroke-width:1.5625;" width="285.0464" x="554.3438" y="121.875"/><ellipse cx="602.9711" cy="171.875" fill="#C2C2C2" rx="34.375" ry="34.375" style="stroke:#181818;stroke-width:3.125;"/><path d="M601.3109,193.5059 Q595.8422,193.5059 592.2777,191.2109 Q588.7621,188.8672 587.0043,184.668 Q585.2953,180.4199 585.2953,174.8047 Q585.2953,168.457 587.3461,163.916 Q589.3969,159.375 593.4008,156.9336 Q597.4047,154.4922 603.264,154.4922 Q606.0472,154.4922 608.1469,155.0781 Q610.2465,155.6152 612.3949,156.6895 L609.8558,162.9883 Q607.9027,162.0117 606.1937,161.6211 Q604.5336,161.2305 603.0199,161.2305 Q599.3578,161.2305 597.1605,162.8906 Q594.9633,164.5508 594.0355,167.5293 Q593.1078,170.5078 593.1078,174.4629 Q593.1078,180.7617 595.3539,183.7891 Q597.6,186.7676 602.5804,186.7676 Q604.4359,186.7676 606.389,186.2793 Q608.3422,185.791 610.9301,184.6191 L610.9301,191.5527 Q608.6351,192.5293 606.1449,193.0176 Q603.7035,193.5059 601.3109,193.5059 Z " fill="#000000"/><text fill="#000000" font-family="'Fantasque Sans Mono'" font-size="43.75" lengthAdjust="spacing" textLength="181.1523" x="647.1105" y="186.3159">Building</text><line style="stroke:#181818;stroke-width:1.5625;" x1="557.4688" x2="836.2651" y1="221.875" y2="221.875"/><rect fill="none" height="18.75" style="stroke:#595959;stroke-width:3.125;" width="18.75" x="579.3438" y="252.6306"/><text fill="#000000" font-family="'Fantasque Sans Mono'" font-size="43.75" lengthAdjust="spacing" textLength="203.7964" x="616.8438" y="271.759">room:Room</text><line style="stroke:#181818;stroke-width:1.5625;" x1="557.4688" x2="836.2651" y1="292.7612" y2="292.7612"/></g><!--class Room--><g class="entity" data-entity="Room" data-source-line="20" data-uid="ent0007" id="entity_Room"><rect fill="#F1F1F1" height="150" rx="7.8125" ry="7.8125" style="stroke:#181818;stroke-width:1.5625;" width="190.5762" x="601.5938" y="505.25"/><ellipse cx="648.4688" cy="555.25" fill="#C2C2C2" rx="34.375" ry="34.375" style="stroke:#181818;stroke-width:3.125;"/><path d="M646.8086,576.8809 Q641.3398,576.8809 637.7754,574.5859 Q634.2598,572.2422 632.502,568.043 Q630.793,563.7949 630.793,558.1797 Q630.793,551.832 632.8438,547.291 Q634.8945,542.75 638.8984,540.3086 Q642.9023,537.8672 648.7617,537.8672 Q651.5449,537.8672 653.6445,538.4531 Q655.7441,538.9902 657.8926,540.0645 L655.3535,546.3633 Q653.4004,545.3867 651.6914,544.9961 Q650.0313,544.6055 648.5176,544.6055 Q644.8555,544.6055 642.6582,546.2656 Q640.4609,547.9258 639.5332,550.9043 Q638.6055,553.8828 638.6055,557.8379 Q638.6055,564.1367 640.8516,567.1641 Q643.0977,570.1426 648.0781,570.1426 Q649.9336,570.1426 651.8867,569.6543 Q653.8398,569.166 656.4277,567.9941 L656.4277,574.9277 Q654.1328,575.9043 651.6426,576.3926 Q649.2012,576.8809 646.8086,576.8809 Z " fill="#000000"/><text fill="#000000" font-family="'Fantasque Sans Mono'" font-size="43.75" lengthAdjust="spacing" textLength="90.5762" x="692.2188" y="569.6909">Room</text><line style="stroke:#181818;stroke-width:1.5625;" x1="604.7188" x2="789.0449" y1="605.25" y2="605.25"/><line style="stroke:#181818;stroke-width:1.5625;" x1="604.7188" x2="789.0449" y1="630.25" y2="630.25"/></g><!--reverse link Car to Engine--><g class="link" data-entity-1="Car" data-entity-2="Engine" data-source-line="14" data-uid="lnk5" id="link_Car_Engine"><path codeLine="14" d="M256.25,356.2813 C256.25,414.875 256.25,451.125 256.25,504.8125" fill="none" id="Car-backto-Engine" style="stroke:#181818;stroke-width:3.125;"/><polygon fill="none" points="256.25,318.7813,243.75,337.5313,256.25,356.2813,268.75,337.5313,256.25,318.7813" style="stroke:#181818;stroke-width:3.125;"/></g><!--reverse link Building to Room--><g class="link" data-entity-1="Building" data-entity-2="Room" data-source-line="23" data-uid="lnk8" id="link_Building_Room"><path codeLine="23" d="M696.875,356.2813 C696.875,414.875 696.875,451.125 696.875,504.8125" fill="none" id="Building-backto-Room" style="stroke:#181818;stroke-width:3.125;"/><polygon fill="#181818" points="696.875,318.7813,684.375,337.5313,696.875,356.2813,709.375,337.5313,696.875,318.7813" style="stroke:#181818;stroke-width:3.125;"/></g><!--SRC=[JOon3eCm34HdyXKMOoKaf6wChShM3lGBB30GaJXf4YR4lpS1Ykh1bk_UdPyaMtIeGHisxUYC9WXk9k5FfwCUPnLgm-65qSvhv83-CnEyaJqyOpB_vws4QraAOR6TS21eI66GXlqehOT5G9nMeVTmHtVyQPPUakfMA8W7oLGzjhFPgn3P7jd5cCgIbWfCKHpg2TrcgJh9GyAoizOPewichZsxe-d_jPsnIwpSm5Ly0G00]--></g></svg>