<svg xmlns="http://www.w3.org/2000/svg" xmlns:xlink="http://www.w3.org/1999/xlink" contentStyleType="text/css" data-diagram-type="CLASS" height="1046.875px" preserveAspectRatio="none" style="width:1931px;height:1046px;background:#FFFFFF;" version="1.1" viewBox="0 0 1931 1046" width="1931.25px" zoomAndPan="magnify"><defs/><g><!--cluster average-test-doubles--><g class="cluster" data-entity="average-test-doubles" data-source-line="6" data-uid="ent0002" id="cluster_average-test-doubles"><path d="M26.5625,18.75 L482.5684,18.75 A11.7188,11.7188 0 0 1 490.3809,26.5625 L512.2559,83.3862 L1901.5625,83.3862 A7.8125,7.8125 0 0 1 1909.375,91.1987 L1909.375,1018.6563 A7.8125,7.8125 0 0 1 1901.5625,1026.4688 L26.5625,1026.4688 A7.8125,7.8125 0 0 1 18.75,1018.6563 L18.75,26.5625 A7.8125,7.8125 0 0 1 26.5625,18.75" fill="none" style="stroke:#000000;stroke-width:4.6875;"/><line style="stroke:#000000;stroke-width:4.6875;" x1="18.75" x2="512.2559" y1="83.3862" y2="83.3862"/><text fill="#000000" font-family="'Fantasque Sans Mono'" font-size="43.75" font-weight="bold" lengthAdjust="spacing" textLength="452.8809" x="31.25" y="62.384">average-test-doubles</text></g><!--class ToBeNamed--><g class="entity" data-entity="ToBeNamed" data-source-line="7" data-uid="ent0003" id="entity_ToBeNamed"><rect fill="#F1F1F1" height="195.8862" rx="7.8125" ry="7.8125" style="stroke:#181818;stroke-width:1.5625;" width="692.6392" x="1144.3125" y="213.6563"/><ellipse cx="1375.4526" cy="263.6563" fill="#B1B1B1" rx="34.375" ry="34.375" style="stroke:#181818;stroke-width:3.125;"/><path d="M1363.0503,283.9688 L1363.0503,278.6465 L1370.4233,277.8164 L1370.4233,252.1816 L1363.0503,251.3516 L1363.0503,246.0293 L1385.3647,246.0293 L1385.3647,251.3516 L1377.7964,252.1816 L1377.7964,277.8164 L1385.3647,278.6465 L1385.3647,283.9688 L1363.0503,283.9688 Z " fill="#000000"/><text fill="#000000" font-family="'Fantasque Sans Mono'" font-size="43.75" font-style="italic" lengthAdjust="spacing" textLength="203.7964" x="1439.5151" y="278.0972">ToBeNamed</text><line style="stroke:#181818;stroke-width:1.5625;" x1="1147.4375" x2="1833.8267" y1="313.6563" y2="313.6563"/><line style="stroke:#181818;stroke-width:1.5625;" x1="1147.4375" x2="1833.8267" y1="338.6563" y2="338.6563"/><ellipse cx="1178.6875" cy="378.7869" fill="#A6A6A6" rx="9.375" ry="9.375" style="stroke:#545454;stroke-width:3.125;"/><text fill="#000000" font-family="'Fantasque Sans Mono'" font-size="43.75" lengthAdjust="spacing" textLength="611.3892" x="1206.8125" y="388.5403">readNumbers():Array&lt;number&gt;</text></g><!--class FileAccess--><g class="entity" data-entity="FileAccess" data-source-line="11" data-uid="ent0004" id="entity_FileAccess"><rect fill="#F1F1F1" height="287.6587" rx="7.8125" ry="7.8125" style="stroke:#181818;stroke-width:1.5625;" width="692.6392" x="1166.1875" y="688.8125"/><ellipse cx="1386.0056" cy="738.8125" fill="#C2C2C2" rx="34.375" ry="34.375" style="stroke:#181818;stroke-width:3.125;"/><path d="M1384.3455,760.4434 Q1378.8767,760.4434 1375.3123,758.1484 Q1371.7966,755.8047 1370.0388,751.6055 Q1368.3298,747.3574 1368.3298,741.7422 Q1368.3298,735.3945 1370.3806,730.8535 Q1372.4314,726.3125 1376.4353,723.8711 Q1380.4392,721.4297 1386.2986,721.4297 Q1389.0818,721.4297 1391.1814,722.0156 Q1393.281,722.5527 1395.4294,723.627 L1392.8904,729.9258 Q1390.9373,728.9492 1389.2283,728.5586 Q1387.5681,728.168 1386.0544,728.168 Q1382.3923,728.168 1380.1951,729.8281 Q1377.9978,731.4883 1377.0701,734.4668 Q1376.1423,737.4453 1376.1423,741.4004 Q1376.1423,747.6992 1378.3884,750.7266 Q1380.6345,753.7051 1385.615,753.7051 Q1387.4705,753.7051 1389.4236,753.2168 Q1391.3767,752.7285 1393.9646,751.5566 L1393.9646,758.4902 Q1391.6697,759.4668 1389.1794,759.9551 Q1386.738,760.4434 1384.3455,760.4434 Z " fill="#000000"/><text fill="#000000" font-family="'Fantasque Sans Mono'" font-size="43.75" lengthAdjust="spacing" textLength="226.4404" x="1450.0681" y="753.2534">FileAccess</text><line style="stroke:#181818;stroke-width:1.5625;" x1="1169.3125" x2="1855.7017" y1="788.8125" y2="788.8125"/><rect fill="none" height="18.75" style="stroke:#595959;stroke-width:3.125;" width="18.75" x="1191.1875" y="819.5681"/><text fill="#000000" font-family="'Fantasque Sans Mono'" font-size="43.75" lengthAdjust="spacing" textLength="249.0845" x="1228.6875" y="838.6965">path:string</text><line style="stroke:#181818;stroke-width:1.5625;" x1="1169.3125" x2="1855.7017" y1="859.6987" y2="859.6987"/><ellipse cx="1200.5625" cy="899.8293" fill="#A6A6A6" rx="9.375" ry="9.375" style="stroke:#545454;stroke-width:3.125;"/><text fill="#000000" font-family="'Fantasque Sans Mono'" font-size="43.75" lengthAdjust="spacing" textLength="520.813" x="1228.6875" y="909.5828">FileAccess(path:string)</text><ellipse cx="1200.5625" cy="945.7156" fill="#A6A6A6" rx="9.375" ry="9.375" style="stroke:#545454;stroke-width:3.125;"/><text fill="#000000" font-family="'Fantasque Sans Mono'" font-size="43.75" lengthAdjust="spacing" textLength="611.3892" x="1228.6875" y="955.469">readNumbers():Array&lt;number&gt;</text></g><!--class Average--><g class="entity" data-entity="Average" data-source-line="17" data-uid="ent0006" id="entity_Average"><rect fill="#F1F1F1" height="379.4312" rx="7.8125" ry="7.8125" style="stroke:#181818;stroke-width:1.5625;" width="828.5034" x="167" y="121.875"/><ellipse cx="488.7163" cy="171.875" fill="#C2C2C2" rx="34.375" ry="34.375" style="stroke:#181818;stroke-width:3.125;"/><path d="M487.0562,193.5059 Q481.5874,193.5059 478.0229,191.2109 Q474.5073,188.8672 472.7495,184.668 Q471.0405,180.4199 471.0405,174.8047 Q471.0405,168.457 473.0913,163.916 Q475.1421,159.375 479.146,156.9336 Q483.1499,154.4922 489.0093,154.4922 Q491.7925,154.4922 493.8921,155.0781 Q495.9917,155.6152 498.1401,156.6895 L495.6011,162.9883 Q493.6479,162.0117 491.939,161.6211 Q490.2788,161.2305 488.7651,161.2305 Q485.103,161.2305 482.9058,162.8906 Q480.7085,164.5508 479.7808,167.5293 Q478.853,170.5078 478.853,174.4629 Q478.853,180.7617 481.0991,183.7891 Q483.3452,186.7676 488.3257,186.7676 Q490.1812,186.7676 492.1343,186.2793 Q494.0874,185.791 496.6753,184.6191 L496.6753,191.5527 Q494.3804,192.5293 491.8901,193.0176 Q489.4487,193.5059 487.0562,193.5059 Z " fill="#000000"/><text fill="#000000" font-family="'Fantasque Sans Mono'" font-size="43.75" lengthAdjust="spacing" textLength="158.5083" x="552.7788" y="186.3159">Average</text><line style="stroke:#181818;stroke-width:1.5625;" x1="170.125" x2="992.3784" y1="221.875" y2="221.875"/><rect fill="none" height="18.75" style="stroke:#595959;stroke-width:3.125;" width="18.75" x="192" y="252.6306"/><text fill="#000000" font-family="'Fantasque Sans Mono'" font-size="43.75" lengthAdjust="spacing" textLength="452.8809" x="229.5" y="271.759">fileAccess:ToBeNamed</text><line style="stroke:#181818;stroke-width:1.5625;" x1="170.125" x2="992.3784" y1="292.7612" y2="292.7612"/><ellipse cx="201.375" cy="332.8918" fill="#A6A6A6" rx="9.375" ry="9.375" style="stroke:#545454;stroke-width:3.125;"/><text fill="#000000" font-family="'Fantasque Sans Mono'" font-size="43.75" lengthAdjust="spacing" textLength="656.6772" x="229.5" y="342.6453">Average(fileAccess:ToBeNamed)</text><ellipse cx="201.375" cy="378.7781" fill="#A6A6A6" rx="9.375" ry="9.375" style="stroke:#545454;stroke-width:3.125;"/><text fill="#000000" font-family="'Fantasque Sans Mono'" font-size="43.75" lengthAdjust="spacing" textLength="588.7451" x="229.5" y="388.5315">computeMeanOfFile():number</text><ellipse cx="201.375" cy="424.6643" fill="#A6A6A6" rx="9.375" ry="9.375" style="stroke:#545454;stroke-width:3.125;"/><text fill="#000000" font-family="'Fantasque Sans Mono'" font-size="43.75" lengthAdjust="spacing" textLength="634.0332" x="229.5" y="434.4177">computeMedianOfFile():number</text><ellipse cx="201.375" cy="470.5505" fill="#A6A6A6" rx="9.375" ry="9.375" style="stroke:#545454;stroke-width:3.125;"/><text fill="#000000" font-family="'Fantasque Sans Mono'" font-size="43.75" lengthAdjust="spacing" textLength="747.2534" x="229.5" y="480.304">computeModeOfFile():Array&lt;number&gt;</text></g><!--class Statistics--><g class="entity" data-entity="Statistics" data-source-line="25" data-uid="ent0007" id="entity_Statistics"><rect fill="#F1F1F1" height="287.6587" rx="7.8125" ry="7.8125" style="stroke:#181818;stroke-width:1.5625;" width="987.0117" x="69" y="688.8125"/><ellipse cx="436.0044" cy="738.8125" fill="#C2C2C2" rx="34.375" ry="34.375" style="stroke:#181818;stroke-width:3.125;"/><path d="M434.3442,760.4434 Q428.8755,760.4434 425.311,758.1484 Q421.7954,755.8047 420.0376,751.6055 Q418.3286,747.3574 418.3286,741.7422 Q418.3286,735.3945 420.3794,730.8535 Q422.4302,726.3125 426.4341,723.8711 Q430.438,721.4297 436.2974,721.4297 Q439.0806,721.4297 441.1802,722.0156 Q443.2798,722.5527 445.4282,723.627 L442.8892,729.9258 Q440.936,728.9492 439.2271,728.5586 Q437.5669,728.168 436.0532,728.168 Q432.3911,728.168 430.1938,729.8281 Q427.9966,731.4883 427.0688,734.4668 Q426.1411,737.4453 426.1411,741.4004 Q426.1411,747.6992 428.3872,750.7266 Q430.6333,753.7051 435.6138,753.7051 Q437.4692,753.7051 439.4224,753.2168 Q441.3755,752.7285 443.9634,751.5566 L443.9634,758.4902 Q441.6685,759.4668 439.1782,759.9551 Q436.7368,760.4434 434.3442,760.4434 Z " fill="#000000"/><text fill="#000000" font-family="'Fantasque Sans Mono'" font-size="43.75" lengthAdjust="spacing" textLength="226.4404" x="500.0669" y="753.2534">Statistics</text><line style="stroke:#181818;stroke-width:1.5625;" x1="72.125" x2="1052.8867" y1="788.8125" y2="788.8125"/><line style="stroke:#181818;stroke-width:1.5625;" x1="72.125" x2="1052.8867" y1="813.8125" y2="813.8125"/><ellipse cx="103.375" cy="853.9431" fill="#A6A6A6" rx="9.375" ry="9.375" style="stroke:#545454;stroke-width:3.125;"/><text fill="#000000" font-family="'Fantasque Sans Mono'" font-size="43.75" lengthAdjust="spacing" text-decoration="underline" textLength="769.8975" x="131.5" y="863.6965">mean(numbers:Array&lt;number&gt;):number</text><ellipse cx="103.375" cy="899.8293" fill="#A6A6A6" rx="9.375" ry="9.375" style="stroke:#545454;stroke-width:3.125;"/><text fill="#000000" font-family="'Fantasque Sans Mono'" font-size="43.75" lengthAdjust="spacing" text-decoration="underline" textLength="815.1855" x="131.5" y="909.5828">median(numbers:Array&lt;number&gt;):number</text><ellipse cx="103.375" cy="945.7156" fill="#A6A6A6" rx="9.375" ry="9.375" style="stroke:#545454;stroke-width:3.125;"/><text fill="#000000" font-family="'Fantasque Sans Mono'" font-size="43.75" lengthAdjust="spacing" text-decoration="underline" textLength="905.7617" x="131.5" y="955.469">mode(numbers:Array&lt;number&gt;):List&lt;number&gt;</text></g><!--reverse link ToBeNamed to FileAccess--><g class="link" data-entity-1="ToBeNamed" data-entity-2="FileAccess" data-source-line="12" data-uid="lnk5" id="link_ToBeNamed_FileAccess"><path d="M1497.0761,466.543 C1500.3886,544.4805 1502.7188,599.4688 1506.4688,687.75" fill="none" id="ToBeNamed-backto-FileAccess" style="stroke:#181818;stroke-width:3.125;stroke-dasharray:21.875,21.875;"/><polygon fill="none" points="1494.6875,410.3438,1478.343,467.3392,1515.8092,465.7468,1494.6875,410.3438" style="stroke:#181818;stroke-width:3.125;"/></g><!--reverse link Average to ToBeNamed--><g class="link" data-entity-1="Average" data-entity-2="ToBeNamed" data-source-line="31" data-uid="lnk8" id="link_Average_ToBeNamed"><path codeLine="31" d="M1034.375,311.5938 C1083.2188,311.5938 1094.5938,311.5938 1143.4375,311.5938" fill="none" id="Average-backto-ToBeNamed" style="stroke:#181818;stroke-width:3.125;"/><polygon fill="none" points="996.875,311.5938,1015.625,324.0938,1034.375,311.5938,1015.625,299.0938,996.875,311.5938" style="stroke:#181818;stroke-width:3.125;"/></g><!--link Average to Statistics--><g class="link" data-entity-1="Average" data-entity-2="Statistics" data-source-line="32" data-uid="lnk9" id="link_Average_Statistics"><path codeLine="32" d="M574.4375,502.0313 C572.1875,563.25 570.4341,611.4812 568.3404,668.825" fill="none" id="Average-to-Statistics" style="stroke:#181818;stroke-width:3.125;"/><polygon fill="#181818" points="567.6563,687.5625,581.1741,659.9123,568.2264,671.9479,556.1908,659.0001,567.6563,687.5625" style="stroke:#181818;stroke-width:3.125;"/></g><!--SRC=[fP7FRi8m3CRlUOg8Kz5K2MatD26n0wV13km5JE92H9DqiJjfGdttfIsKecMRjkMIF_xy-MU7ZiPL4C1AwvrNX-0jIWur2XeY6WkeIrvvnnk8uSaA70EzrYYtu4YkO-PahA-Cl9_DXAX07M6F4jumn3rd9CwrhtSbaZm96PTnZA40XVB5Fs9hhy-HTfqiyi7hHju51BsfxGu3PTFvCWHuVt3TVT6f6z5jgWGYkJ8bBfN2U3IsAj6YOqeNA0oMqJ-lW0zpuc3SFb7zQfYDXDF_SYxxkQHuYg7YVE1Eb3ixP2bv2azvMzMCQmJtNBHTHSWUxpknDh-HUus3-8S1R1dO41j5unbG-wgQgxEDk5blGhUMdt4IoIt-tzDZErybFqNsL7ENV_MvlFsyIo3F5wFUHIC-0000]--></g></svg>