<svg xmlns="http://www.w3.org/2000/svg" xmlns:xlink="http://www.w3.org/1999/xlink" contentStyleType="text/css" data-diagram-type="CLASS" height="1046.875px" preserveAspectRatio="none" style="width:1612px;height:1046px;background:#FFFFFF;" version="1.1" viewBox="0 0 1612 1046" width="1612.5px" zoomAndPan="magnify"><defs/><g><!--cluster Average--><g class="cluster" data-entity="Average" data-source-line="6" data-uid="ent0002" id="cluster_Average"><path d="M26.5625,18.75 L188.1958,18.75 A11.7188,11.7188 0 0 1 196.0083,26.5625 L217.8833,83.3862 L1582.8125,83.3862 A7.8125,7.8125 0 0 1 1590.625,91.1987 L1590.625,1018.6563 A7.8125,7.8125 0 0 1 1582.8125,1026.4688 L26.5625,1026.4688 A7.8125,7.8125 0 0 1 18.75,1018.6563 L18.75,26.5625 A7.8125,7.8125 0 0 1 26.5625,18.75" fill="none" style="stroke:#000000;stroke-width:4.6875;"/><line style="stroke:#000000;stroke-width:4.6875;" x1="18.75" x2="217.8833" y1="83.3862" y2="83.3862"/><text fill="#000000" font-family="'Fantasque Sans Mono'" font-size="43.75" font-weight="bold" lengthAdjust="spacing" textLength="158.5083" x="31.25" y="62.384">Average</text></g><!--class ToBeNamed--><g class="entity" data-entity="ToBeNamed" data-source-line="7" data-uid="ent0003" id="entity_ToBeNamed"><rect fill="#F1F1F1" height="195.8862" rx="7.8125" ry="7.8125" style="stroke:#181818;stroke-width:1.5625;" width="602.063" x="936.4688" y="213.6563"/><ellipse cx="1122.3208" cy="263.6563" fill="#B1B1B1" rx="34.375" ry="34.375" style="stroke:#181818;stroke-width:3.125;"/><path d="M1109.9185,283.9688 L1109.9185,278.6465 L1117.2915,277.8164 L1117.2915,252.1816 L1109.9185,251.3516 L1109.9185,246.0293 L1132.2329,246.0293 L1132.2329,251.3516 L1124.6646,252.1816 L1124.6646,277.8164 L1132.2329,278.6465 L1132.2329,283.9688 L1109.9185,283.9688 Z " fill="#000000"/><text fill="#000000" font-family="'Fantasque Sans Mono'" font-size="43.75" font-style="italic" lengthAdjust="spacing" textLength="203.7964" x="1186.3833" y="278.0972">ToBeNamed</text><line style="stroke:#181818;stroke-width:1.5625;" x1="939.5938" x2="1535.4067" y1="313.6563" y2="313.6563"/><line style="stroke:#181818;stroke-width:1.5625;" x1="939.5938" x2="1535.4067" y1="338.6563" y2="338.6563"/><ellipse cx="970.8438" cy="378.7869" fill="#A6A6A6" rx="9.375" ry="9.375" style="stroke:#545454;stroke-width:3.125;"/><text fill="#000000" font-family="'Fantasque Sans Mono'" font-size="43.75" lengthAdjust="spacing" textLength="520.813" x="998.9688" y="388.5403">ReadNumbers():List&lt;int&gt;</text></g><!--class FileAccess--><g class="entity" data-entity="FileAccess" data-source-line="11" data-uid="ent0004" id="entity_FileAccess"><rect fill="#F1F1F1" height="287.6587" rx="7.8125" ry="7.8125" style="stroke:#181818;stroke-width:1.5625;" width="602.063" x="939.5938" y="688.8125"/><ellipse cx="1114.1238" cy="738.8125" fill="#C2C2C2" rx="34.375" ry="34.375" style="stroke:#181818;stroke-width:3.125;"/><path d="M1112.4636,760.4434 Q1106.9949,760.4434 1103.4304,758.1484 Q1099.9148,755.8047 1098.157,751.6055 Q1096.448,747.3574 1096.448,741.7422 Q1096.448,735.3945 1098.4988,730.8535 Q1100.5496,726.3125 1104.5535,723.8711 Q1108.5574,721.4297 1114.4167,721.4297 Q1117.2,721.4297 1119.2996,722.0156 Q1121.3992,722.5527 1123.5476,723.627 L1121.0085,729.9258 Q1119.0554,728.9492 1117.3464,728.5586 Q1115.6863,728.168 1114.1726,728.168 Q1110.5105,728.168 1108.3132,729.8281 Q1106.116,731.4883 1105.1882,734.4668 Q1104.2605,737.4453 1104.2605,741.4004 Q1104.2605,747.6992 1106.5066,750.7266 Q1108.7527,753.7051 1113.7332,753.7051 Q1115.5886,753.7051 1117.5417,753.2168 Q1119.4949,752.7285 1122.0828,751.5566 L1122.0828,758.4902 Q1119.7878,759.4668 1117.2976,759.9551 Q1114.8562,760.4434 1112.4636,760.4434 Z " fill="#000000"/><text fill="#000000" font-family="'Fantasque Sans Mono'" font-size="43.75" lengthAdjust="spacing" textLength="226.4404" x="1178.1863" y="753.2534">FileAccess</text><line style="stroke:#181818;stroke-width:1.5625;" x1="942.7188" x2="1538.5317" y1="788.8125" y2="788.8125"/><rect fill="none" height="18.75" style="stroke:#595959;stroke-width:3.125;" width="18.75" x="964.5938" y="819.5681"/><text fill="#000000" font-family="'Fantasque Sans Mono'" font-size="43.75" lengthAdjust="spacing" textLength="249.0845" x="1002.0938" y="838.6965">path:string</text><line style="stroke:#181818;stroke-width:1.5625;" x1="942.7188" x2="1538.5317" y1="859.6987" y2="859.6987"/><ellipse cx="973.9688" cy="899.8293" fill="#A6A6A6" rx="9.375" ry="9.375" style="stroke:#545454;stroke-width:3.125;"/><text fill="#000000" font-family="'Fantasque Sans Mono'" font-size="43.75" lengthAdjust="spacing" textLength="520.813" x="1002.0938" y="909.5828">FileAccess(path:string)</text><ellipse cx="973.9688" cy="945.7156" fill="#A6A6A6" rx="9.375" ry="9.375" style="stroke:#545454;stroke-width:3.125;"/><text fill="#000000" font-family="'Fantasque Sans Mono'" font-size="43.75" lengthAdjust="spacing" textLength="520.813" x="1002.0938" y="955.469">ReadNumbers():List&lt;int&gt;</text></g><!--class Average--><g class="entity" data-entity="Average" data-source-line="17" data-uid="ent0006" id="entity_Average"><rect fill="#F1F1F1" height="379.4312" rx="7.8125" ry="7.8125" style="stroke:#181818;stroke-width:1.5625;" width="737.9272" x="84.1563" y="121.875"/><ellipse cx="360.5845" cy="171.875" fill="#C2C2C2" rx="34.375" ry="34.375" style="stroke:#181818;stroke-width:3.125;"/><path d="M358.9243,193.5059 Q353.4556,193.5059 349.8911,191.2109 Q346.3755,188.8672 344.6177,184.668 Q342.9087,180.4199 342.9087,174.8047 Q342.9087,168.457 344.9595,163.916 Q347.0103,159.375 351.0142,156.9336 Q355.0181,154.4922 360.8774,154.4922 Q363.6606,154.4922 365.7603,155.0781 Q367.8599,155.6152 370.0083,156.6895 L367.4692,162.9883 Q365.5161,162.0117 363.8071,161.6211 Q362.147,161.2305 360.6333,161.2305 Q356.9712,161.2305 354.7739,162.8906 Q352.5767,164.5508 351.6489,167.5293 Q350.7212,170.5078 350.7212,174.4629 Q350.7212,180.7617 352.9673,183.7891 Q355.2134,186.7676 360.1938,186.7676 Q362.0493,186.7676 364.0024,186.2793 Q365.9556,185.791 368.5435,184.6191 L368.5435,191.5527 Q366.2485,192.5293 363.7583,193.0176 Q361.3169,193.5059 358.9243,193.5059 Z " fill="#000000"/><text fill="#000000" font-family="'Fantasque Sans Mono'" font-size="43.75" lengthAdjust="spacing" textLength="158.5083" x="424.647" y="186.3159">Average</text><line style="stroke:#181818;stroke-width:1.5625;" x1="87.2813" x2="818.9585" y1="221.875" y2="221.875"/><rect fill="none" height="18.75" style="stroke:#595959;stroke-width:3.125;" width="18.75" x="109.1563" y="252.6306"/><text fill="#000000" font-family="'Fantasque Sans Mono'" font-size="43.75" lengthAdjust="spacing" textLength="452.8809" x="146.6563" y="271.759">fileAccess:ToBeNamed</text><line style="stroke:#181818;stroke-width:1.5625;" x1="87.2813" x2="818.9585" y1="292.7612" y2="292.7612"/><ellipse cx="118.5313" cy="332.8918" fill="#A6A6A6" rx="9.375" ry="9.375" style="stroke:#545454;stroke-width:3.125;"/><text fill="#000000" font-family="'Fantasque Sans Mono'" font-size="43.75" lengthAdjust="spacing" textLength="656.6772" x="146.6563" y="342.6453">Average(fileAccess:ToBeNamed)</text><ellipse cx="118.5313" cy="378.7781" fill="#A6A6A6" rx="9.375" ry="9.375" style="stroke:#545454;stroke-width:3.125;"/><text fill="#000000" font-family="'Fantasque Sans Mono'" font-size="43.75" lengthAdjust="spacing" textLength="588.7451" x="146.6563" y="388.5315">ComputeMeanOfFile():double</text><ellipse cx="118.5313" cy="424.6643" fill="#A6A6A6" rx="9.375" ry="9.375" style="stroke:#545454;stroke-width:3.125;"/><text fill="#000000" font-family="'Fantasque Sans Mono'" font-size="43.75" lengthAdjust="spacing" textLength="634.0332" x="146.6563" y="434.4177">ComputeMedianOfFile():double</text><ellipse cx="118.5313" cy="470.5505" fill="#A6A6A6" rx="9.375" ry="9.375" style="stroke:#545454;stroke-width:3.125;"/><text fill="#000000" font-family="'Fantasque Sans Mono'" font-size="43.75" lengthAdjust="spacing" textLength="656.6772" x="146.6563" y="480.304">ComputeModeOfFile():List&lt;int&gt;</text></g><!--class Statistics--><g class="entity" data-entity="Statistics" data-source-line="25" data-uid="ent0007" id="entity_Statistics"><rect fill="#F1F1F1" height="287.6587" rx="7.8125" ry="7.8125" style="stroke:#181818;stroke-width:1.5625;" width="760.5713" x="69.7188" y="688.8125"/><ellipse cx="323.5029" cy="738.8125" fill="#C2C2C2" rx="34.375" ry="34.375" style="stroke:#181818;stroke-width:3.125;"/><path d="M321.8428,760.4434 Q316.374,760.4434 312.8096,758.1484 Q309.2939,755.8047 307.5361,751.6055 Q305.8271,747.3574 305.8271,741.7422 Q305.8271,735.3945 307.8779,730.8535 Q309.9287,726.3125 313.9326,723.8711 Q317.9365,721.4297 323.7959,721.4297 Q326.5791,721.4297 328.6787,722.0156 Q330.7783,722.5527 332.9268,723.627 L330.3877,729.9258 Q328.4346,728.9492 326.7256,728.5586 Q325.0654,728.168 323.5518,728.168 Q319.8896,728.168 317.6924,729.8281 Q315.4951,731.4883 314.5674,734.4668 Q313.6396,737.4453 313.6396,741.4004 Q313.6396,747.6992 315.8857,750.7266 Q318.1318,753.7051 323.1123,753.7051 Q324.9678,753.7051 326.9209,753.2168 Q328.874,752.7285 331.4619,751.5566 L331.4619,758.4902 Q329.167,759.4668 326.6768,759.9551 Q324.2354,760.4434 321.8428,760.4434 Z " fill="#000000"/><text fill="#000000" font-family="'Fantasque Sans Mono'" font-size="43.75" lengthAdjust="spacing" textLength="226.4404" x="387.5654" y="753.2534">Statistics</text><line style="stroke:#181818;stroke-width:1.5625;" x1="72.8438" x2="827.165" y1="788.8125" y2="788.8125"/><line style="stroke:#181818;stroke-width:1.5625;" x1="72.8438" x2="827.165" y1="813.8125" y2="813.8125"/><ellipse cx="104.0938" cy="853.9431" fill="#A6A6A6" rx="9.375" ry="9.375" style="stroke:#545454;stroke-width:3.125;"/><text fill="#000000" font-family="'Fantasque Sans Mono'" font-size="43.75" lengthAdjust="spacing" text-decoration="underline" textLength="611.3892" x="132.2188" y="863.6965">Mean(path:List&lt;int&gt;):double</text><ellipse cx="104.0938" cy="899.8293" fill="#A6A6A6" rx="9.375" ry="9.375" style="stroke:#545454;stroke-width:3.125;"/><text fill="#000000" font-family="'Fantasque Sans Mono'" font-size="43.75" lengthAdjust="spacing" text-decoration="underline" textLength="656.6772" x="132.2188" y="909.5828">Median(path:List&lt;int&gt;):double</text><ellipse cx="104.0938" cy="945.7156" fill="#A6A6A6" rx="9.375" ry="9.375" style="stroke:#545454;stroke-width:3.125;"/><text fill="#000000" font-family="'Fantasque Sans Mono'" font-size="43.75" lengthAdjust="spacing" text-decoration="underline" textLength="679.3213" x="132.2188" y="955.469">Mode(path:List&lt;int&gt;):List&lt;int&gt;</text></g><!--reverse link ToBeNamed to FileAccess--><g class="link" data-entity-1="ToBeNamed" data-entity-2="FileAccess" data-source-line="12" data-uid="lnk5" id="link_ToBeNamed_FileAccess"><path d="M1238.4321,466.5927 C1238.9008,544.5302 1239.2188,599.4688 1239.75,687.75" fill="none" id="ToBeNamed-backto-FileAccess" style="stroke:#181818;stroke-width:3.125;stroke-dasharray:21.875,21.875;"/><polygon fill="none" points="1238.0938,410.3438,1219.6824,466.7055,1257.1817,466.48,1238.0938,410.3438" style="stroke:#181818;stroke-width:3.125;"/></g><!--reverse link Average to ToBeNamed--><g class="link" data-entity-1="Average" data-entity-2="ToBeNamed" data-source-line="31" data-uid="lnk8" id="link_Average_ToBeNamed"><path codeLine="31" d="M859.8437,311.5938 C897.4063,311.5938 897.4688,311.5938 935.0312,311.5938" fill="none" id="Average-backto-ToBeNamed" style="stroke:#181818;stroke-width:3.125;"/><polygon fill="none" points="822.3437,311.5938,841.0937,324.0938,859.8437,311.5938,841.0937,299.0938,822.3437,311.5938" style="stroke:#181818;stroke-width:3.125;"/></g><!--link Average to Statistics--><g class="link" data-entity-1="Average" data-entity-2="Statistics" data-source-line="32" data-uid="lnk9" id="link_Average_Statistics"><path codeLine="32" d="M452,502.0313 C451.625,563.25 451.3311,611.4691 450.9874,668.8128" fill="none" id="Average-to-Statistics" style="stroke:#181818;stroke-width:3.125;"/><polygon fill="#181818" points="450.875,687.5625,463.5434,659.5129,450.9687,671.9378,438.5438,659.3631,450.875,687.5625" style="stroke:#181818;stroke-width:3.125;"/></g><!--SRC=[fL5TQyCW57ttLqYVKaQWiBSm2jqWJsi7w_x0hTuqqgYPtkobvBzFkpPDg1Is-Q9uFkuvwW_AjE10SssD5RMp6Zcv3faV48aLT0sLrj060ZmhmH3upmxv5epdww2SZVcjue-B1MCjY0FiaQ- -qCNzo7XOoX2w2WJo3_kCqL6UaRYE6gcsikSFxmXoq-aTEf_DYrVbwIb8boTcpqwRQC1xNge6Lq9WE2hTDgZHa4-RLmgRu9stG7NXoIcpJqo-6cOZulm_6QTFCCbI3TEA8NDYrDaXIz5JqLwiRZl2DO9vgsAZ453QRjVWFR9Klw5RYGFvJlaj0GLK2J_kx-EjwA-kCUhFWmzUjnaIgfZv3xeG_aQLB77vEvlpwGTTW3nVZZgoddq3]--></g></svg>