<svg xmlns="http://www.w3.org/2000/svg" xmlns:xlink="http://www.w3.org/1999/xlink" contentStyleType="text/css" data-diagram-type="CLASS" height="975px" preserveAspectRatio="none" style="width:2500px;height:975px;background:#FFFFFF;" version="1.1" viewBox="0 0 2500 975" width="2500px" zoomAndPan="magnify"><defs/><g><!--cluster System--><g class="cluster" data-entity="System" data-source-line="6" data-uid="ent0002" id="cluster_System"><path d="M26.5625,18.75 L165.5518,18.75 A11.7188,11.7188 0 0 1 173.3643,26.5625 L195.2393,83.3862 L2470.3125,83.3862 A7.8125,7.8125 0 0 1 2478.125,91.1987 L2478.125,946.4688 A7.8125,7.8125 0 0 1 2470.3125,954.2813 L26.5625,954.2813 A7.8125,7.8125 0 0 1 18.75,946.4688 L18.75,26.5625 A7.8125,7.8125 0 0 1 26.5625,18.75" fill="none" style="stroke:#000000;stroke-width:4.6875;"/><line style="stroke:#000000;stroke-width:4.6875;" x1="18.75" x2="195.2393" y1="83.3862" y2="83.3862"/><text fill="#000000" font-family="'Fantasque Sans Mono'" font-size="43.75" font-weight="bold" lengthAdjust="spacing" textLength="135.8643" x="31.25" y="62.384">System</text></g><!--cluster Test--><g class="cluster" data-entity="Test" data-source-line="7" data-uid="ent0003" id="cluster_Test"><path d="M1135.9375,576.1563 L1229.6387,576.1563 A11.7188,11.7188 0 0 1 1237.4512,583.9688 L1259.3262,640.7925 L2395.3125,640.7925 A7.8125,7.8125 0 0 1 2403.125,648.605 L2403.125,871.4688 A7.8125,7.8125 0 0 1 2395.3125,879.2813 L1135.9375,879.2813 A7.8125,7.8125 0 0 1 1128.125,871.4688 L1128.125,583.9688 A7.8125,7.8125 0 0 1 1135.9375,576.1563" fill="none" style="stroke:#000000;stroke-width:4.6875;"/><line style="stroke:#000000;stroke-width:4.6875;" x1="1128.125" x2="1259.3262" y1="640.7925" y2="640.7925"/><text fill="#000000" font-family="'Fantasque Sans Mono'" font-size="43.75" font-weight="bold" lengthAdjust="spacing" textLength="90.5762" x="1140.625" y="619.7903">Test</text></g><!--cluster Program--><g class="cluster" data-entity="Program" data-uid="ent0007" id="cluster_Program"><path d="M101.5625,146.875 L263.1958,146.875 A11.7188,11.7188 0 0 1 271.0083,154.6875 L292.8833,211.5112 L1045.3125,211.5112 A7.8125,7.8125 0 0 1 1053.125,219.3237 L1053.125,871.4688 A7.8125,7.8125 0 0 1 1045.3125,879.2813 L101.5625,879.2813 A7.8125,7.8125 0 0 1 93.75,871.4688 L93.75,154.6875 A7.8125,7.8125 0 0 1 101.5625,146.875" fill="none" style="stroke:#000000;stroke-width:4.6875;"/><line style="stroke:#000000;stroke-width:4.6875;" x1="93.75" x2="292.8833" y1="211.5112" y2="211.5112"/><text fill="#000000" font-family="'Fantasque Sans Mono'" font-size="43.75" font-weight="bold" lengthAdjust="spacing" textLength="158.5083" x="106.25" y="190.509">Program</text></g><!--class MajorTest--><g class="entity" data-entity="MajorTest" data-source-line="8" data-uid="ent0004" id="entity_MajorTest"><rect fill="#F1F1F1" height="150" rx="7.8125" ry="7.8125" style="stroke:#181818;stroke-width:1.5625;" width="303.7964" x="1635.5938" y="679.2813"/><ellipse cx="1682.4688" cy="729.2813" fill="#C2C2C2" rx="34.375" ry="34.375" style="stroke:#181818;stroke-width:3.125;"/><path d="M1680.8086,750.9121 Q1675.3398,750.9121 1671.7754,748.6172 Q1668.2598,746.2734 1666.502,742.0742 Q1664.793,737.8262 1664.793,732.2109 Q1664.793,725.8633 1666.8438,721.3223 Q1668.8945,716.7813 1672.8984,714.3398 Q1676.9023,711.8984 1682.7617,711.8984 Q1685.5449,711.8984 1687.6445,712.4844 Q1689.7441,713.0215 1691.8926,714.0957 L1689.3535,720.3945 Q1687.4004,719.418 1685.6914,719.0273 Q1684.0313,718.6367 1682.5176,718.6367 Q1678.8555,718.6367 1676.6582,720.2969 Q1674.4609,721.957 1673.5332,724.9355 Q1672.6055,727.9141 1672.6055,731.8691 Q1672.6055,738.168 1674.8516,741.1953 Q1677.0977,744.1738 1682.0781,744.1738 Q1683.9336,744.1738 1685.8867,743.6855 Q1687.8398,743.1973 1690.4277,742.0254 L1690.4277,748.959 Q1688.1328,749.9355 1685.6426,750.4238 Q1683.2012,750.9121 1680.8086,750.9121 Z " fill="#000000"/><text fill="#000000" font-family="'Fantasque Sans Mono'" font-size="43.75" lengthAdjust="spacing" textLength="203.7964" x="1726.2188" y="743.7222">MajorTest</text><line style="stroke:#181818;stroke-width:1.5625;" x1="1638.7188" x2="1936.2651" y1="779.2813" y2="779.2813"/><line style="stroke:#181818;stroke-width:1.5625;" x1="1638.7188" x2="1936.2651" y1="804.2813" y2="804.2813"/></g><!--class MinorDouble--><g class="entity" data-entity="MinorDouble" data-source-line="11" data-uid="ent0005" id="entity_MinorDouble"><rect fill="#F1F1F1" height="150" rx="7.8125" ry="7.8125" style="stroke:#181818;stroke-width:1.5625;" width="349.0845" x="1178.5938" y="679.2813"/><ellipse cx="1225.4688" cy="729.2813" fill="#C2C2C2" rx="34.375" ry="34.375" style="stroke:#181818;stroke-width:3.125;"/><path d="M1223.8086,750.9121 Q1218.3398,750.9121 1214.7754,748.6172 Q1211.2598,746.2734 1209.502,742.0742 Q1207.793,737.8262 1207.793,732.2109 Q1207.793,725.8633 1209.8438,721.3223 Q1211.8945,716.7813 1215.8984,714.3398 Q1219.9023,711.8984 1225.7617,711.8984 Q1228.5449,711.8984 1230.6445,712.4844 Q1232.7441,713.0215 1234.8926,714.0957 L1232.3535,720.3945 Q1230.4004,719.418 1228.6914,719.0273 Q1227.0313,718.6367 1225.5176,718.6367 Q1221.8555,718.6367 1219.6582,720.2969 Q1217.4609,721.957 1216.5332,724.9355 Q1215.6055,727.9141 1215.6055,731.8691 Q1215.6055,738.168 1217.8516,741.1953 Q1220.0977,744.1738 1225.0781,744.1738 Q1226.9336,744.1738 1228.8867,743.6855 Q1230.8398,743.1973 1233.4277,742.0254 L1233.4277,748.959 Q1231.1328,749.9355 1228.6426,750.4238 Q1226.2012,750.9121 1223.8086,750.9121 Z " fill="#000000"/><text fill="#000000" font-family="'Fantasque Sans Mono'" font-size="43.75" lengthAdjust="spacing" textLength="249.0845" x="1269.2188" y="743.7222">MinorDouble</text><line style="stroke:#181818;stroke-width:1.5625;" x1="1181.7188" x2="1524.5532" y1="779.2813" y2="779.2813"/><line style="stroke:#181818;stroke-width:1.5625;" x1="1181.7188" x2="1524.5532" y1="804.2813" y2="804.2813"/></g><!--class MinorTest--><g class="entity" data-entity="MinorTest" data-source-line="14" data-uid="ent0009" id="entity_MinorTest"><rect fill="#F1F1F1" height="150" rx="7.8125" ry="7.8125" style="stroke:#181818;stroke-width:1.5625;" width="303.7964" x="2048.0938" y="679.2813"/><ellipse cx="2094.9688" cy="729.2813" fill="#C2C2C2" rx="34.375" ry="34.375" style="stroke:#181818;stroke-width:3.125;"/><path d="M2093.3086,750.9121 Q2087.8398,750.9121 2084.2754,748.6172 Q2080.7598,746.2734 2079.002,742.0742 Q2077.293,737.8262 2077.293,732.2109 Q2077.293,725.8633 2079.3438,721.3223 Q2081.3945,716.7813 2085.3984,714.3398 Q2089.4023,711.8984 2095.2617,711.8984 Q2098.0449,711.8984 2100.1445,712.4844 Q2102.2441,713.0215 2104.3926,714.0957 L2101.8535,720.3945 Q2099.9004,719.418 2098.1914,719.0273 Q2096.5313,718.6367 2095.0176,718.6367 Q2091.3555,718.6367 2089.1582,720.2969 Q2086.9609,721.957 2086.0332,724.9355 Q2085.1055,727.9141 2085.1055,731.8691 Q2085.1055,738.168 2087.3516,741.1953 Q2089.5977,744.1738 2094.5781,744.1738 Q2096.4336,744.1738 2098.3867,743.6855 Q2100.3398,743.1973 2102.9277,742.0254 L2102.9277,748.959 Q2100.6328,749.9355 2098.1426,750.4238 Q2095.7012,750.9121 2093.3086,750.9121 Z " fill="#000000"/><text fill="#000000" font-family="'Fantasque Sans Mono'" font-size="43.75" lengthAdjust="spacing" textLength="203.7964" x="2138.7188" y="743.7222">MinorTest</text><line style="stroke:#181818;stroke-width:1.5625;" x1="2051.2188" x2="2348.7651" y1="779.2813" y2="779.2813"/><line style="stroke:#181818;stroke-width:1.5625;" x1="2051.2188" x2="2348.7651" y1="804.2813" y2="804.2813"/></g><!--class IMinor--><g class="entity" data-entity="IMinor" data-uid="ent0006" id="entity_IMinor"><rect fill="#F1F1F1" height="150" rx="7.8125" ry="7.8125" style="stroke:#181818;stroke-width:1.5625;" width="235.8643" x="144.5625" y="295.9063"/><ellipse cx="191.4375" cy="345.9063" fill="#B1B1B1" rx="34.375" ry="34.375" style="stroke:#181818;stroke-width:3.125;"/><path d="M179.0352,366.2188 L179.0352,360.8965 L186.4082,360.0664 L186.4082,334.4316 L179.0352,333.6016 L179.0352,328.2793 L201.3496,328.2793 L201.3496,333.6016 L193.7813,334.4316 L193.7813,360.0664 L201.3496,360.8965 L201.3496,366.2188 L179.0352,366.2188 Z " fill="#000000"/><text fill="#000000" font-family="'Fantasque Sans Mono'" font-size="43.75" font-style="italic" lengthAdjust="spacing" textLength="135.8643" x="235.1875" y="360.3472">IMinor</text><line style="stroke:#181818;stroke-width:1.5625;" x1="147.6875" x2="377.3018" y1="395.9063" y2="395.9063"/><line style="stroke:#181818;stroke-width:1.5625;" x1="147.6875" x2="377.3018" y1="420.9063" y2="420.9063"/></g><!--class Major--><g class="entity" data-entity="Major" data-source-line="20" data-uid="ent0011" id="entity_Major"><rect fill="#F1F1F1" height="241.7725" rx="7.8125" ry="7.8125" style="stroke:#181818;stroke-width:1.5625;" width="511.4868" x="491.125" y="250"/><ellipse cx="676.9771" cy="300" fill="#C2C2C2" rx="34.375" ry="34.375" style="stroke:#181818;stroke-width:3.125;"/><path d="M675.3169,321.6309 Q669.8481,321.6309 666.2837,319.3359 Q662.7681,316.9922 661.0103,312.793 Q659.3013,308.5449 659.3013,302.9297 Q659.3013,296.582 661.3521,292.041 Q663.4028,287.5 667.4067,285.0586 Q671.4106,282.6172 677.27,282.6172 Q680.0532,282.6172 682.1528,283.2031 Q684.2524,283.7402 686.4009,284.8145 L683.8618,291.1133 Q681.9087,290.1367 680.1997,289.7461 Q678.5396,289.3555 677.0259,289.3555 Q673.3638,289.3555 671.1665,291.0156 Q668.9692,292.6758 668.0415,295.6543 Q667.1138,298.6328 667.1138,302.5879 Q667.1138,308.8867 669.3599,311.9141 Q671.606,314.8926 676.5864,314.8926 Q678.4419,314.8926 680.395,314.4043 Q682.3481,313.916 684.936,312.7441 L684.936,319.6777 Q682.6411,320.6543 680.1509,321.1426 Q677.7095,321.6309 675.3169,321.6309 Z " fill="#000000"/><text fill="#000000" font-family="'Fantasque Sans Mono'" font-size="43.75" lengthAdjust="spacing" textLength="113.2202" x="741.0396" y="314.4409">Major</text><line style="stroke:#181818;stroke-width:1.5625;" x1="494.25" x2="999.4868" y1="350" y2="350"/><rect fill="none" height="18.75" style="stroke:#595959;stroke-width:3.125;" width="18.75" x="516.125" y="380.7556"/><text fill="#000000" font-family="'Fantasque Sans Mono'" font-size="43.75" lengthAdjust="spacing" textLength="271.7285" x="553.625" y="399.884">minor:IMinor</text><line style="stroke:#181818;stroke-width:1.5625;" x1="494.25" x2="999.4868" y1="420.8862" y2="420.8862"/><rect fill="#808080" height="18.75" style="stroke:#595959;stroke-width:3.125;" width="18.75" x="516.125" y="451.6418"/><text fill="#000000" font-family="'Fantasque Sans Mono'" font-size="43.75" lengthAdjust="spacing" textLength="430.2368" x="553.625" y="470.7703">Major(minor:IMinor)</text></g><!--class Minor--><g class="entity" data-entity="Minor" data-source-line="28" data-uid="ent0012" id="entity_Minor"><rect fill="#F1F1F1" height="150" rx="7.8125" ry="7.8125" style="stroke:#181818;stroke-width:1.5625;" width="213.2202" x="471.5" y="679.2813"/><ellipse cx="518.375" cy="729.2813" fill="#C2C2C2" rx="34.375" ry="34.375" style="stroke:#181818;stroke-width:3.125;"/><path d="M516.7148,750.9121 Q511.2461,750.9121 507.6816,748.6172 Q504.166,746.2734 502.4082,742.0742 Q500.6992,737.8262 500.6992,732.2109 Q500.6992,725.8633 502.75,721.3223 Q504.8008,716.7813 508.8047,714.3398 Q512.8086,711.8984 518.668,711.8984 Q521.4512,711.8984 523.5508,712.4844 Q525.6504,713.0215 527.7988,714.0957 L525.2598,720.3945 Q523.3066,719.418 521.5977,719.0273 Q519.9375,718.6367 518.4238,718.6367 Q514.7617,718.6367 512.5645,720.2969 Q510.3672,721.957 509.4395,724.9355 Q508.5117,727.9141 508.5117,731.8691 Q508.5117,738.168 510.7578,741.1953 Q513.0039,744.1738 517.9844,744.1738 Q519.8398,744.1738 521.793,743.6855 Q523.7461,743.1973 526.334,742.0254 L526.334,748.959 Q524.0391,749.9355 521.5488,750.4238 Q519.1074,750.9121 516.7148,750.9121 Z " fill="#000000"/><text fill="#000000" font-family="'Fantasque Sans Mono'" font-size="43.75" lengthAdjust="spacing" textLength="113.2202" x="562.125" y="743.7222">Minor</text><line style="stroke:#181818;stroke-width:1.5625;" x1="474.625" x2="681.5952" y1="779.2813" y2="779.2813"/><line style="stroke:#181818;stroke-width:1.5625;" x1="474.625" x2="681.5952" y1="804.2813" y2="804.2813"/></g><!--reverse link IMinor to MinorDouble--><g class="link" data-entity-1="IMinor" data-entity-2="MinorDouble" data-uid="lnk8" id="link_IMinor_MinorDouble"><path d="M399.9258,478.7514 C425.7695,496.0951 408.1875,481.2813 437.5,491.7813 C696.25,584.5625 794.1563,458.9375 1053.125,551.1563 C1132.7188,579.5 1211.8125,633.5625 1268.7813,678.3438" fill="none" id="IMinor-backto-MinorDouble" style="stroke:#181818;stroke-width:3.125;stroke-dasharray:21.875,21.875;"/><polygon fill="none" points="353.2188,447.4063,389.4774,494.3204,410.3742,463.1823,353.2188,447.4063" style="stroke:#181818;stroke-width:3.125;"/></g><!--link MajorTest to MinorDouble--><g class="link" data-entity-1="MajorTest" data-entity-2="MinorDouble" data-source-line="17" data-uid="lnk10" id="link_MajorTest_MinorDouble"><path codeLine="17" d="M1634.875,754.2813 C1599.5,754.2813 1582.875,754.2813 1547.5,754.2813" fill="none" id="MajorTest-to-MinorDouble" style="stroke:#181818;stroke-width:3.125;"/><polygon fill="#181818" points="1528.75,754.2813,1556.875,766.7813,1544.375,754.2813,1556.875,741.7813,1528.75,754.2813" style="stroke:#181818;stroke-width:3.125;"/></g><!--reverse link IMinor to Minor--><g class="link" data-entity-1="IMinor" data-entity-2="Minor" data-uid="lnk13" id="link_IMinor_Minor"><path d="M359.4513,489.8813 C415.3576,556.6625 461.625,611.9375 517.4688,678.6563" fill="none" id="IMinor-backto-Minor" style="stroke:#181818;stroke-width:3.125;stroke-dasharray:21.875,21.875;"/><polygon fill="none" points="323.3438,446.75,345.0742,501.9171,373.8284,477.8454,323.3438,446.75" style="stroke:#181818;stroke-width:3.125;"/></g><!--reverse link Major to IMinor--><g class="link" data-entity-1="Major" data-entity-2="IMinor" data-source-line="31" data-uid="lnk14" id="link_Major_IMinor"><path codeLine="31" d="M452.625,370.9063 C416.4688,370.9063 417.8438,370.9063 381.6875,370.9063" fill="none" id="Major-backto-IMinor" style="stroke:#181818;stroke-width:3.125;"/><polygon fill="none" points="490.125,370.9063,471.375,358.4063,452.625,370.9063,471.375,383.4063,490.125,370.9063" style="stroke:#181818;stroke-width:3.125;"/></g><!--link MajorTest to Major--><g class="link" data-entity-1="MajorTest" data-entity-2="Major" data-source-line="33" data-uid="lnk15" id="link_MajorTest_Major"><path codeLine="33" d="M1730.9688,678.625 C1693.1875,635.125 1639.7813,582.3438 1581.25,551.1563 C1402.2188,455.75 1194.464,413.9205 1022.6828,393.608" fill="none" id="MajorTest-to-Major" style="stroke:#181818;stroke-width:3.125;"/><polygon fill="#181818" points="1004.0625,391.4063,1030.5251,407.1224,1019.5794,393.2411,1033.4608,382.2954,1004.0625,391.4063" style="stroke:#181818;stroke-width:3.125;"/></g><!--link MinorTest to Minor--><g class="link" data-entity-1="MinorTest" data-entity-2="Minor" data-source-line="34" data-uid="lnk16" id="link_MinorTest_Minor"><path codeLine="34" d="M2147.3125,677.9375 C2100.75,618.9375 2026.75,543.7188 1939.0625,521.4688 C1776.1875,480.0938 1348.0313,490.75 1182.8125,521.4688 C1001.4375,555.1875 821.1443,633.0524 702.863,690.5524" fill="none" id="MinorTest-to-Minor" style="stroke:#181818;stroke-width:3.125;"/><polygon fill="#181818" points="686,698.75,716.7596,697.6956,700.0525,691.9187,705.8295,675.2116,686,698.75" style="stroke:#181818;stroke-width:3.125;"/></g><!--SRC=[ZP3FJiCm3CRlUGfh9pYqciID0oSqYGC82Lx0TEuMbiGbSGzewhkJjDtmfl77H_jd-_k-jBEXmuWUF0Tkjf4zWSIUJ3fErjHYxsJ5GPumZnSh38BfeoTumP3WCMykDDzPk5akZUcmsU4cKvz9oCFUGAv3yvMIpArIZSEKJ-4xnxF9OCuX6pZUS__c2Apl77aAakOlzNFaJLPHFupOdtT-VlQjfRhJFyt4QI_ppyjsLBVKlhNarWDKlfoydMIU4fvaomKPzwyqU7r9gGr2iSM6u9-cTMo_hKpwkGAbSd9USgbF4ZhaFZOLSmnPC-ErmNm1]--></g></svg>