<svg xmlns="http://www.w3.org/2000/svg" xmlns:xlink="http://www.w3.org/1999/xlink" contentStyleType="text/css" data-diagram-type="CLASS" height="968.75px" preserveAspectRatio="none" style="width:1009px;height:968px;background:#FFFFFF;" version="1.1" viewBox="0 0 1009 968" width="1009.375px" zoomAndPan="magnify"><defs/><g><!--cluster System--><g class="cluster" data-entity="System" data-source-line="6" data-uid="ent0002" id="cluster_System"><path d="M26.5625,18.75 L165.5518,18.75 A11.7188,11.7188 0 0 1 173.3643,26.5625 L195.2393,83.3862 L979.6875,83.3862 A7.8125,7.8125 0 0 1 987.5,91.1987 L987.5,941.1875 A7.8125,7.8125 0 0 1 979.6875,949 L26.5625,949 A7.8125,7.8125 0 0 1 18.75,941.1875 L18.75,26.5625 A7.8125,7.8125 0 0 1 26.5625,18.75" fill="none" style="stroke:#000000;stroke-width:4.6875;"/><line style="stroke:#000000;stroke-width:4.6875;" x1="18.75" x2="195.2393" y1="83.3862" y2="83.3862"/><text fill="#000000" font-family="'Fantasque Sans Mono'" font-size="43.75" font-weight="bold" lengthAdjust="spacing" textLength="135.8643" x="31.25" y="62.384">System</text></g><!--cluster Test--><g class="cluster" data-entity="Test" data-source-line="7" data-uid="ent0003" id="cluster_Test"><path d="M101.5625,146.875 L195.2637,146.875 A11.7188,11.7188 0 0 1 203.0762,154.6875 L224.9512,211.5112 L904.6875,211.5112 A7.8125,7.8125 0 0 1 912.5,219.3237 L912.5,442.1875 A7.8125,7.8125 0 0 1 904.6875,450 L101.5625,450 A7.8125,7.8125 0 0 1 93.75,442.1875 L93.75,154.6875 A7.8125,7.8125 0 0 1 101.5625,146.875" fill="none" style="stroke:#000000;stroke-width:4.6875;"/><line style="stroke:#000000;stroke-width:4.6875;" x1="93.75" x2="224.9512" y1="211.5112" y2="211.5112"/><text fill="#000000" font-family="'Fantasque Sans Mono'" font-size="43.75" font-weight="bold" lengthAdjust="spacing" textLength="90.5762" x="106.25" y="190.509">Test</text></g><!--cluster Program--><g class="cluster" data-entity="Program" data-source-line="14" data-uid="ent0006" id="cluster_Program"><path d="M110.9375,525 L272.5708,525 A11.7188,11.7188 0 0 1 280.3833,532.8125 L302.2583,589.6362 L848.4375,589.6362 A7.8125,7.8125 0 0 1 856.25,597.4487 L856.25,866.1875 A7.8125,7.8125 0 0 1 848.4375,874 L110.9375,874 A7.8125,7.8125 0 0 1 103.125,866.1875 L103.125,532.8125 A7.8125,7.8125 0 0 1 110.9375,525" fill="none" style="stroke:#000000;stroke-width:4.6875;"/><line style="stroke:#000000;stroke-width:4.6875;" x1="103.125" x2="302.2583" y1="589.6362" y2="589.6362"/><text fill="#000000" font-family="'Fantasque Sans Mono'" font-size="43.75" font-weight="bold" lengthAdjust="spacing" textLength="158.5083" x="115.625" y="568.634">Program</text></g><!--class MajorTest--><g class="entity" data-entity="MajorTest" data-source-line="8" data-uid="ent0004" id="entity_MajorTest"><rect fill="#F1F1F1" height="150" rx="7.8125" ry="7.8125" style="stroke:#181818;stroke-width:1.5625;" width="303.7964" x="144.9688" y="250"/><ellipse cx="191.8438" cy="300" fill="#C2C2C2" rx="34.375" ry="34.375" style="stroke:#181818;stroke-width:3.125;"/><path d="M190.1836,321.6309 Q184.7148,321.6309 181.1504,319.3359 Q177.6348,316.9922 175.877,312.793 Q174.168,308.5449 174.168,302.9297 Q174.168,296.582 176.2188,292.041 Q178.2695,287.5 182.2734,285.0586 Q186.2773,282.6172 192.1367,282.6172 Q194.9199,282.6172 197.0195,283.2031 Q199.1191,283.7402 201.2676,284.8145 L198.7285,291.1133 Q196.7754,290.1367 195.0664,289.7461 Q193.4063,289.3555 191.8926,289.3555 Q188.2305,289.3555 186.0332,291.0156 Q183.8359,292.6758 182.9082,295.6543 Q181.9805,298.6328 181.9805,302.5879 Q181.9805,308.8867 184.2266,311.9141 Q186.4727,314.8926 191.4531,314.8926 Q193.3086,314.8926 195.2617,314.4043 Q197.2148,313.916 199.8027,312.7441 L199.8027,319.6777 Q197.5078,320.6543 195.0176,321.1426 Q192.5762,321.6309 190.1836,321.6309 Z " fill="#000000"/><text fill="#000000" font-family="'Fantasque Sans Mono'" font-size="43.75" lengthAdjust="spacing" textLength="203.7964" x="235.5938" y="314.4409">MajorTest</text><line style="stroke:#181818;stroke-width:1.5625;" x1="148.0938" x2="445.6401" y1="350" y2="350"/><line style="stroke:#181818;stroke-width:1.5625;" x1="148.0938" x2="445.6401" y1="375" y2="375"/></g><!--class MinorTest--><g class="entity" data-entity="MinorTest" data-source-line="11" data-uid="ent0005" id="entity_MinorTest"><rect fill="#F1F1F1" height="150" rx="7.8125" ry="7.8125" style="stroke:#181818;stroke-width:1.5625;" width="303.7964" x="557.4688" y="250"/><ellipse cx="604.3438" cy="300" fill="#C2C2C2" rx="34.375" ry="34.375" style="stroke:#181818;stroke-width:3.125;"/><path d="M602.6836,321.6309 Q597.2148,321.6309 593.6504,319.3359 Q590.1348,316.9922 588.377,312.793 Q586.668,308.5449 586.668,302.9297 Q586.668,296.582 588.7188,292.041 Q590.7695,287.5 594.7734,285.0586 Q598.7773,282.6172 604.6367,282.6172 Q607.4199,282.6172 609.5195,283.2031 Q611.6191,283.7402 613.7676,284.8145 L611.2285,291.1133 Q609.2754,290.1367 607.5664,289.7461 Q605.9063,289.3555 604.3926,289.3555 Q600.7305,289.3555 598.5332,291.0156 Q596.3359,292.6758 595.4082,295.6543 Q594.4805,298.6328 594.4805,302.5879 Q594.4805,308.8867 596.7266,311.9141 Q598.9727,314.8926 603.9531,314.8926 Q605.8086,314.8926 607.7617,314.4043 Q609.7148,313.916 612.3027,312.7441 L612.3027,319.6777 Q610.0078,320.6543 607.5176,321.1426 Q605.0762,321.6309 602.6836,321.6309 Z " fill="#000000"/><text fill="#000000" font-family="'Fantasque Sans Mono'" font-size="43.75" lengthAdjust="spacing" textLength="203.7964" x="648.0938" y="314.4409">MinorTest</text><line style="stroke:#181818;stroke-width:1.5625;" x1="560.5938" x2="858.1401" y1="350" y2="350"/><line style="stroke:#181818;stroke-width:1.5625;" x1="560.5938" x2="858.1401" y1="375" y2="375"/></g><!--class Major--><g class="entity" data-entity="Major" data-source-line="15" data-uid="ent0007" id="entity_Major"><rect fill="#F1F1F1" height="195.8862" rx="7.8125" ry="7.8125" style="stroke:#181818;stroke-width:1.5625;" width="330.3345" x="153.5938" y="628.125"/><ellipse cx="253.1702" cy="678.125" fill="#C2C2C2" rx="34.375" ry="34.375" style="stroke:#181818;stroke-width:3.125;"/><path d="M251.51,699.7559 Q246.0413,699.7559 242.4768,697.4609 Q238.9612,695.1172 237.2034,690.918 Q235.4944,686.6699 235.4944,681.0547 Q235.4944,674.707 237.5452,670.166 Q239.5959,665.625 243.5999,663.1836 Q247.6038,660.7422 253.4631,660.7422 Q256.2463,660.7422 258.3459,661.3281 Q260.4456,661.8652 262.594,662.9395 L260.0549,669.2383 Q258.1018,668.2617 256.3928,667.8711 Q254.7327,667.4805 253.219,667.4805 Q249.5569,667.4805 247.3596,669.1406 Q245.1624,670.8008 244.2346,673.7793 Q243.3069,676.7578 243.3069,680.7129 Q243.3069,687.0117 245.553,690.0391 Q247.7991,693.0176 252.7795,693.0176 Q254.635,693.0176 256.5881,692.5293 Q258.5413,692.041 261.1292,690.8691 L261.1292,697.8027 Q258.8342,698.7793 256.344,699.2676 Q253.9026,699.7559 251.51,699.7559 Z " fill="#000000"/><text fill="#000000" font-family="'Fantasque Sans Mono'" font-size="43.75" lengthAdjust="spacing" textLength="113.2202" x="308.6316" y="692.5659">Major</text><line style="stroke:#181818;stroke-width:1.5625;" x1="156.7188" x2="480.8032" y1="728.125" y2="728.125"/><rect fill="none" height="18.75" style="stroke:#595959;stroke-width:3.125;" width="18.75" x="178.5938" y="758.8806"/><text fill="#000000" font-family="'Fantasque Sans Mono'" font-size="43.75" lengthAdjust="spacing" textLength="249.0845" x="216.0938" y="778.009">minor:Minor</text><line style="stroke:#181818;stroke-width:1.5625;" x1="156.7188" x2="480.8032" y1="799.0112" y2="799.0112"/></g><!--class Minor--><g class="entity" data-entity="Minor" data-source-line="19" data-uid="ent0008" id="entity_Minor"><rect fill="#F1F1F1" height="150" rx="7.8125" ry="7.8125" style="stroke:#181818;stroke-width:1.5625;" width="213.2202" x="593.375" y="651.0625"/><ellipse cx="640.25" cy="701.0625" fill="#C2C2C2" rx="34.375" ry="34.375" style="stroke:#181818;stroke-width:3.125;"/><path d="M638.5898,722.6934 Q633.1211,722.6934 629.5566,720.3984 Q626.041,718.0547 624.2832,713.8555 Q622.5742,709.6074 622.5742,703.9922 Q622.5742,697.6445 624.625,693.1035 Q626.6758,688.5625 630.6797,686.1211 Q634.6836,683.6797 640.543,683.6797 Q643.3262,683.6797 645.4258,684.2656 Q647.5254,684.8027 649.6738,685.877 L647.1348,692.1758 Q645.1816,691.1992 643.4727,690.8086 Q641.8125,690.418 640.2988,690.418 Q636.6367,690.418 634.4395,692.0781 Q632.2422,693.7383 631.3145,696.7168 Q630.3867,699.6953 630.3867,703.6504 Q630.3867,709.9492 632.6328,712.9766 Q634.8789,715.9551 639.8594,715.9551 Q641.7148,715.9551 643.668,715.4668 Q645.6211,714.9785 648.209,713.8066 L648.209,720.7402 Q645.9141,721.7168 643.4238,722.2051 Q640.9824,722.6934 638.5898,722.6934 Z " fill="#000000"/><text fill="#000000" font-family="'Fantasque Sans Mono'" font-size="43.75" lengthAdjust="spacing" textLength="113.2202" x="684" y="715.5034">Minor</text><line style="stroke:#181818;stroke-width:1.5625;" x1="596.5" x2="803.4702" y1="751.0625" y2="751.0625"/><line style="stroke:#181818;stroke-width:1.5625;" x1="596.5" x2="803.4702" y1="776.0625" y2="776.0625"/></g><!--reverse link Major to Minor--><g class="link" data-entity-1="Major" data-entity-2="Minor" data-source-line="22" data-uid="lnk9" id="link_Major_Minor"><path codeLine="22" d="M521.5625,726.0625 C557.5625,726.0625 556.0313,726.0625 592.0313,726.0625" fill="none" id="Major-backto-Minor" style="stroke:#181818;stroke-width:3.125;"/><polygon fill="none" points="484.0625,726.0625,502.8125,738.5625,521.5625,726.0625,502.8125,713.5625,484.0625,726.0625" style="stroke:#181818;stroke-width:3.125;"/></g><!--link MajorTest to Major--><g class="link" data-entity-1="MajorTest" data-entity-2="Major" data-source-line="24" data-uid="lnk10" id="link_MajorTest_Major"><path codeLine="24" d="M300.9375,401.4375 C304.4688,465.2188 308.5901,539.3411 312.4338,608.8723" fill="none" id="MajorTest-to-Major" style="stroke:#181818;stroke-width:3.125;"/><polygon fill="#181818" points="313.4688,627.5938,324.3973,598.8217,312.6063,611.9926,299.4354,600.2016,313.4688,627.5938" style="stroke:#181818;stroke-width:3.125;"/></g><!--link MinorTest to Minor--><g class="link" data-entity-1="MinorTest" data-entity-2="Minor" data-source-line="25" data-uid="lnk11" id="link_MinorTest_Minor"><path codeLine="25" d="M707.625,401.4375 C705.9375,472.375 703.8531,560.4741 702.1656,631.2553" fill="none" id="MinorTest-to-Minor" style="stroke:#181818;stroke-width:3.125;"/><polygon fill="#181818" points="701.7188,650,714.8855,622.1809,702.0912,634.3794,689.8926,621.5851,701.7188,650" style="stroke:#181818;stroke-width:3.125;"/></g><!--SRC=[XKyz3u8m5DpxArxOQqZS61pPD2Rw1rwWO8NsOLi6G_ZljY0V4X9lw71tlRjdAwaRDAX0aQRiOKW9SAOLpCvABWfiQvUITXVqSfIYTcXVhO0RQWjd_pDQ-ni9npXchC6imjAxtjO91Hq3Zucy2-k-L41Me_LH-2IpKNgsDKczOrhUgU5gg0nxTajMR41NI57dFN0LmfEXui-2_ObZE75O8iPLOV1XkO_pqpHmP5Uc-RuVqv3Nimy0]--></g></svg>